<?xml version="1.0" encoding="UTF-8"?>
<svg xmlns="http://www.w3.org/2000/svg" width="878" height="249" viewBox="0 0 878 249">
  <path d="M130.00,224.00 L130.00,227.00 L133.00,231.00 L153.00,231.00 L156.00,228.00 L156.00,223.00 L155.00,221.00 L152.00,219.00 L136.00,219.00 L135.00,220.00 L133.00,220.00 Z M867.00,97.00 L848.00,97.00 L828.00,153.00 L826.00,153.00 L824.00,150.00 L804.00,97.00 L784.00,97.00 L817.00,177.00 L817.00,180.00 L805.00,208.00 L805.00,211.00 L824.00,211.00 Z M288.00,97.00 L288.00,163.00 L293.00,174.00 L303.00,181.00 L314.00,183.00 L329.00,180.00 L338.00,173.00 L341.00,174.00 L342.00,181.00 L359.00,180.00 L359.00,97.00 L341.00,97.00 L340.00,98.00 L341.00,99.00 L340.00,102.00 L341.00,108.00 L340.00,111.00 L340.00,154.00 L334.00,162.00 L325.00,166.00 L320.00,166.00 L314.00,164.00 L309.00,160.00 L306.00,150.00 L306.00,138.00 L307.00,137.00 L306.00,136.00 L306.00,99.00 L307.00,98.00 L306.00,97.00 Z M725.00,101.00 L713.00,96.00 L697.00,96.00 L693.00,97.00 L687.00,100.00 L681.00,105.00 L679.00,105.00 L678.00,104.00 L678.00,99.00 L679.00,98.00 L678.00,97.00 L660.00,97.00 L660.00,211.00 L678.00,211.00 L679.00,210.00 L679.00,177.00 L680.00,176.00 L696.00,182.00 L703.00,182.00 L704.00,183.00 L712.00,182.00 L727.00,175.00 L736.00,164.00 L741.00,146.00 L740.00,125.00 L737.00,116.00 L733.00,109.00 Z M697.00,111.00 L703.00,111.00 L704.00,112.00 L707.00,112.00 L711.00,114.00 L717.00,120.00 L720.00,126.00 L720.00,129.00 L721.00,130.00 L721.00,136.00 L722.00,137.00 L722.00,139.00 L721.00,140.00 L721.00,149.00 L720.00,150.00 L720.00,152.00 L716.00,159.00 L709.00,165.00 L707.00,165.00 L706.00,166.00 L692.00,166.00 L691.00,165.00 L687.00,164.00 L685.00,162.00 L684.00,162.00 L681.00,158.00 L681.00,156.00 L680.00,155.00 L680.00,150.00 L679.00,149.00 L679.00,130.00 L680.00,129.00 L680.00,125.00 L681.00,124.00 L681.00,122.00 L688.00,114.00 L692.00,113.00 L693.00,112.00 L696.00,112.00 Z M589.00,101.00 L577.00,113.00 L571.00,129.00 L571.00,150.00 L573.00,158.00 L577.00,166.00 L582.00,172.00 L589.00,177.00 L598.00,181.00 L608.00,183.00 L618.00,183.00 L619.00,182.00 L629.00,181.00 L635.00,179.00 L645.00,173.00 L646.00,171.00 L645.00,169.00 L645.00,156.00 L626.00,166.00 L608.00,167.00 L600.00,164.00 L593.00,157.00 L590.00,149.00 L591.00,144.00 L647.00,144.00 L647.00,128.00 L644.00,117.00 L639.00,108.00 L631.00,101.00 L618.00,96.00 L602.00,96.00 Z M590.00,129.00 L591.00,128.00 L591.00,124.00 L593.00,120.00 L598.00,114.00 L604.00,111.00 L612.00,110.00 L613.00,111.00 L616.00,111.00 L620.00,113.00 L625.00,118.00 L625.00,119.00 L627.00,121.00 L627.00,124.00 L628.00,125.00 L629.00,131.00 L628.00,132.00 L591.00,132.00 L590.00,131.00 Z M568.00,96.00 L556.00,96.00 L555.00,97.00 L553.00,97.00 L548.00,100.00 L543.00,106.00 L541.00,106.00 L540.00,105.00 L540.00,97.00 L522.00,97.00 L522.00,180.00 L523.00,181.00 L530.00,181.00 L531.00,180.00 L538.00,180.00 L540.00,181.00 L541.00,180.00 L541.00,178.00 L540.00,177.00 L540.00,171.00 L541.00,170.00 L541.00,168.00 L540.00,167.00 L540.00,165.00 L541.00,164.00 L541.00,162.00 L540.00,161.00 L540.00,137.00 L541.00,136.00 L541.00,129.00 L542.00,128.00 L543.00,124.00 L548.00,118.00 L554.00,115.00 L557.00,115.00 L558.00,114.00 L567.00,114.00 L568.00,115.00 L570.00,114.00 L569.00,113.00 L569.00,108.00 L570.00,107.00 L569.00,105.00 L569.00,100.00 L570.00,98.00 Z M214.00,103.00 L208.00,110.00 L205.00,117.00 L204.00,123.00 L221.00,125.00 L223.00,122.00 L223.00,119.00 L229.00,113.00 L235.00,111.00 L241.00,111.00 L245.00,112.00 L251.00,116.00 L254.00,124.00 L254.00,131.00 L253.00,132.00 L226.00,133.00 L211.00,139.00 L204.00,147.00 L202.00,153.00 L202.00,164.00 L204.00,170.00 L212.00,178.00 L218.00,181.00 L228.00,183.00 L238.00,182.00 L244.00,180.00 L251.00,175.00 L254.00,176.00 L255.00,180.00 L272.00,181.00 L273.00,180.00 L272.00,118.00 L266.00,105.00 L260.00,100.00 L248.00,96.00 L230.00,96.00 L223.00,98.00 Z M254.00,145.00 L254.00,153.00 L253.00,154.00 L253.00,158.00 L252.00,160.00 L247.00,165.00 L243.00,166.00 L242.00,167.00 L236.00,167.00 L235.00,168.00 L233.00,168.00 L232.00,167.00 L228.00,167.00 L226.00,166.00 L222.00,161.00 L222.00,154.00 L224.00,150.00 L226.00,148.00 L230.00,146.00 L232.00,146.00 L233.00,145.00 L238.00,145.00 L239.00,144.00 L253.00,144.00 Z M468.00,95.00 L467.00,96.00 L459.00,96.00 L458.00,97.00 L452.00,98.00 L444.00,102.00 L437.00,108.00 L431.00,117.00 L431.00,119.00 L429.00,122.00 L428.00,128.00 L427.00,129.00 L427.00,149.00 L428.00,150.00 L428.00,153.00 L432.00,163.00 L436.00,169.00 L441.00,174.00 L447.00,177.00 L449.00,179.00 L451.00,179.00 L454.00,181.00 L464.00,182.00 L465.00,183.00 L472.00,183.00 L473.00,182.00 L482.00,181.00 L491.00,177.00 L502.00,167.00 L507.00,159.00 L508.00,153.00 L509.00,152.00 L509.00,148.00 L510.00,147.00 L510.00,130.00 L509.00,129.00 L508.00,122.00 L503.00,112.00 L498.00,106.00 L497.00,106.00 L493.00,102.00 L485.00,98.00 L482.00,98.00 L477.00,96.00 L469.00,96.00 Z M465.00,111.00 L471.00,111.00 L472.00,112.00 L478.00,113.00 L480.00,115.00 L481.00,115.00 L486.00,120.00 L489.00,126.00 L489.00,128.00 L490.00,129.00 L490.00,134.00 L491.00,135.00 L491.00,144.00 L490.00,145.00 L490.00,150.00 L489.00,151.00 L489.00,153.00 L486.00,157.00 L486.00,158.00 L480.00,164.00 L476.00,165.00 L475.00,166.00 L462.00,166.00 L456.00,163.00 L450.00,157.00 L448.00,153.00 L448.00,151.00 L447.00,150.00 L447.00,146.00 L446.00,145.00 L446.00,133.00 L447.00,132.00 L447.00,128.00 L448.00,127.00 L449.00,123.00 L457.00,114.00 L461.00,112.00 L464.00,112.00 Z M382.00,73.00 L382.00,96.00 L381.00,97.00 L371.00,97.00 L370.00,98.00 L370.00,112.00 L371.00,113.00 L381.00,113.00 L382.00,114.00 L382.00,166.00 L383.00,167.00 L383.00,170.00 L386.00,176.00 L391.00,180.00 L398.00,182.00 L402.00,182.00 L403.00,183.00 L406.00,182.00 L414.00,182.00 L420.00,180.00 L422.00,178.00 L421.00,164.00 L415.00,166.00 L409.00,166.00 L404.00,164.00 L401.00,160.00 L401.00,151.00 L400.00,150.00 L401.00,147.00 L400.00,146.00 L400.00,136.00 L401.00,135.00 L400.00,125.00 L401.00,122.00 L400.00,121.00 L400.00,114.00 L401.00,113.00 L421.00,113.00 L421.00,97.00 L402.00,97.00 L401.00,96.00 L401.00,73.00 L400.00,72.00 Z M756.00,61.00 L755.00,62.00 L755.00,180.00 L756.00,181.00 L759.00,181.00 L760.00,180.00 L773.00,181.00 L773.00,61.00 Z M180.00,17.00 L144.00,18.00 L96.00,29.00 L60.00,48.00 L32.00,76.00 L18.00,99.00 L12.00,125.00 L17.00,152.00 L31.00,174.00 L23.00,227.00 L27.00,231.00 L118.00,231.00 L121.00,223.00 L116.00,219.00 L40.00,219.00 L41.00,204.00 L46.00,194.00 L52.00,189.00 L101.00,171.00 L124.00,151.00 L142.00,124.00 L171.00,69.00 L189.00,30.00 L190.00,21.00 Z M172.00,29.00 L169.00,41.00 L146.00,86.00 L119.00,88.00 L109.00,92.00 L107.00,97.00 L109.00,101.00 L134.00,102.00 L135.00,105.00 L108.00,145.00 L92.00,158.00 L48.00,175.00 L47.00,171.00 L56.00,146.00 L81.00,103.00 L109.00,72.00 L150.00,39.00 L145.00,34.00 L134.00,38.00 L103.00,60.00 L83.00,79.00 L55.00,117.00 L37.00,155.00 L34.00,154.00 L29.00,142.00 L28.00,114.00 L36.00,94.00 L45.00,105.00 L52.00,103.00 L50.00,78.00 L53.00,73.00 L74.00,54.00 L103.00,39.00 L133.00,31.00 Z" fill="#000000" fill-rule="evenodd"/>
</svg>
